<?xml version="1.0" encoding="UTF-8"?>
<svg id="Flattened" xmlns="http://www.w3.org/2000/svg" viewBox="0 0 24 24">
  <defs>
    <style>
      .cls-1 {
        fill: #fff;
      }
    </style>
  </defs>
  <path class="cls-1" d="m4,10c-.41,0-.75-.34-.75-.75V3.25h6c.41,0,.75.34.75.75s-.34.75-.75.75h-4.5v4.5c0,.41-.34.75-.75.75Z"/>
  <path class="cls-1" d="m20,10c-.41,0-.75-.34-.75-.75v-4.5h-4.5c-.41,0-.75-.34-.75-.75s.34-.75.75-.75h6v6c0,.41-.34.75-.75.75Z"/>
  <path class="cls-1" d="m9.25,20.75H3.25v-6c0-.41.34-.75.75-.75s.75.34.75.75v4.5h4.5c.41,0,.75.34.75.75s-.34.75-.75.75Z"/>
  <path class="cls-1" d="m20.75,20.75h-6c-.41,0-.75-.34-.75-.75s.34-.75.75-.75h4.5v-4.5c0-.41.34-.75.75-.75s.75.34.75.75v6Z"/>
</svg>