<?xml version="1.0" encoding="UTF-8"?>
<svg id="Flattened" xmlns="http://www.w3.org/2000/svg" viewBox="0 0 24 24">
  <defs>
    <style>
      .cls-1 {
        fill: #fff;
      }
    </style>
  </defs>
  <path class="cls-1" d="m9.25,4.75c.41,0,.75-.34.75-.75s-.34-.75-.75-.75H3.25v6c0,.41.34.75.75.75s.75-.34.75-.75v-3.44l4.6,4.6,1.06-1.06-4.6-4.6h3.44Z"/>
  <path class="cls-1" d="m14.75,3.25c-.41,0-.75.34-.75.75s.34.75.75.75h3.51l-4.68,4.68,1.06,1.06,4.6-4.6v3.37c0,.41.34.75.75.75s.75-.34.75-.75V3.25h-6Z"/>
  <path class="cls-1" d="m20,14c-.41,0-.75.34-.75.75v3.44l-4.6-4.6-1.06,1.06,4.6,4.6h-3.44c-.41,0-.75.34-.75.75s.34.75.75.75h6v-6c0-.41-.34-.75-.75-.75Z"/>
  <path class="cls-1" d="m9.35,13.66l-4.6,4.6v-3.51c0-.41-.34-.75-.75-.75s-.75.34-.75.75v6h6c.41,0,.75-.34.75-.75s-.34-.75-.75-.75h-3.37l4.53-4.53-1.06-1.06Z"/>
</svg>