<?xml version="1.0" encoding="UTF-8"?>
<svg id="Flattened" xmlns="http://www.w3.org/2000/svg" viewBox="0 0 24 24">
  <defs>
    <style>
      .cls-1 {
        fill: #fff;
      }
    </style>
  </defs>
  <path class="cls-1" d="m20.4,19.23l-6.3-6.3c.72-.96,1.15-2.14,1.15-3.43,0-3.17-2.58-5.75-5.75-5.75s-5.75,2.58-5.75,5.75,2.58,5.75,5.75,5.75c1.34,0,2.58-.47,3.56-1.24l6.28,6.28c.15.15.34.22.53.22s.38-.07.53-.22c.29-.29.29-.77,0-1.06ZM5.25,9.5c0-2.34,1.91-4.25,4.25-4.25s4.25,1.91,4.25,4.25-1.91,4.25-4.25,4.25-4.25-1.91-4.25-4.25Z"/>
  <polygon class="cls-1" points="10 7 9 7 9 9 7 9 7 10 9 10 9 12 10 12 10 10 12 10 12 9 10 9 10 7"/>
</svg>