<?xml version="1.0" encoding="UTF-8"?>
<svg id="Layer_2" data-name="Layer 2" xmlns="http://www.w3.org/2000/svg">
  <defs>
    <style>
      .cls-1 {
        stroke-dasharray: 0 0 9.77 4.89;
      }

      .cls-1, .cls-2 {
        fill: none;
        stroke: #000;
        stroke-miterlimit: 10;
      }

      .cls-3 {
        font-family: Helvetica, Helvetica;
        font-size: 10px;
      }

      .cls-2 {
        stroke-width: .5px;
      }
    </style>
  </defs>
  <g id="Layer_1-2" data-name="Layer 1">
    <circle class="cls-1" cx="58.19" cy="70.36" r="46.67" transform="translate(-14.07 126.18) rotate(-88.09)"/>
    <g>
      <path class="cls-2" d="m64.98,16.06c24.59,0,44.73,19.01,46.54,43.14"/>
      <polygon points="111.65 62.73 109.37 57.86 111.46 58.94 113.43 57.66 111.65 62.73"/>
    </g>
    <g>
      <path class="cls-2" d="m48.83,126.34c-24.76,0-45.02-19.28-46.57-43.65"/>
      <path d="m2.16,79.67c.6,1.39,1.58,3.11,2.59,4.15l-2.42-.74-2.33.98c.9-1.14,1.7-2.94,2.16-4.39Z"/>
    </g>
    <text class="cls-3" transform="translate(67.16 8.46) rotate(3.92)"><tspan x="0" y="0">S</tspan></text>
    <text class="cls-3" transform="translate(73.63 9) rotate(9.85)"><tspan x="0" y="0">t</tspan></text>
    <text class="cls-3" transform="translate(76.23 9.38) rotate(14.97)"><tspan x="0" y="0">a</tspan></text>
    <text class="cls-3" transform="translate(81.4 10.8) rotate(20.2)"><tspan x="0" y="0">r</tspan></text>
    <text class="cls-3" transform="translate(84.43 11.93) rotate(23.71)"><tspan x="0" y="0">t</tspan></text>
  </g>
</svg>